<?xml version="1.0" encoding="UTF-8" standalone="no"?>
<!-- Created with Inkscape (http://www.inkscape.org/) -->

<svg
   width="35.306026"
   height="43.301853"
   viewBox="0 0 9.3413862 11.456949"
   version="1.1"
   id="svg1"
   xml:space="preserve"
   xmlns="http://www.w3.org/2000/svg"
   xmlns:svg="http://www.w3.org/2000/svg"><defs
     id="defs1" /><g
     id="layer1"
     transform="translate(-1.6793069,-0.62152557)"><g
       id="g19"
       transform="matrix(0.09019108,0,0,0.09019108,-4.7365619,5.2450319)"
       style="fill:#000000;fill-opacity:1;stroke-width:2.20019;stroke-dasharray:none"><path
         style="opacity:1;fill:#000000;fill-opacity:1;stroke:#000000;stroke-width:2.20019;stroke-linecap:round;stroke-linejoin:round;stroke-dasharray:none"
         d="M 109.81387,74.666183 C 105.60143,65.526453 100.09054,65.384999 95.64879,59.143962 93.913991,56.70642 89.16082,41.553714 86.568598,37.057004 83.562317,31.842028 84.529269,27.35348 83.807729,25.154588 82.183147,20.203676 81.52757,17.95611 78.470047,12.147826 76.87245,9.1129204 77.851131,7.2562528 76.752174,4.1106279 75.570035,0.72690402 71.411002,-4.1367973 72.396134,-6.1966183 c 0.674879,-1.411111 5.255192,-3.0609909 9.386956,0.1227054 5.075957,3.911237 6.500289,7.4366981 9.325605,14.6019322 5.951207,15.0927527 11.150115,11.4065547 12.454585,6.0125607 1.82367,-7.5408508 2.50118,-21.5870619 2.76087,-30.49227 0.24542,-7.423671 0.0613,-20.305243 0.0614,-27.117875 0,-6.626087 9.23588,-6.91275 9.93912,-0.613525 1.3527,12.116715 2.16136,26.115228 3.16734,39.5878002 0.18367,2.4598832 4.13364,3.11364732 4.74716,-0.015338 1.13728,-5.8001423 5.58309,-37.4251222 7.66908,-42.7628022 2.08599,-5.33768 9.81322,-3.670827 9.63237,1.288407 -0.52624,14.430275 -4.69954,34.47532 -5.82851,43.1309166 -0.55216,4.2333333 2.64178,4.7297933 3.68116,2.20869556 4.9129,-11.91660516 12.45025,-30.19974516 14.29517,-33.92801816 2.94493,-5.951208 11.10483,-3.865217 8.71208,3.619806 -1.46444,4.58106 -12.41035,34.3835304 -13.62029,36.8499393 -1.59517,3.2516907 2.27005,7.0555557 4.90821,2.2700482 3.08957,-5.6043299 10.91605,-19.1003495 13.00677,-22.3093595 2.63817,-4.049275 7.97253,-1.981147 6.74879,2.699517 -0.7335,2.8055462 -6.31932,14.5405792 -7.91449,17.2400961 -1.59517,2.6995169 -7.66908,12.8227049 -9.01884,16.3198069 -3.53315,9.154033 -5.15363,17.853622 -6.68744,23.191304 -1.53382,5.337681 -7.29685,12.953513 -8.09855,15.215458 -1.71788,4.84686 -1e-5,7.546377 2.3314,13.742996"
         id="path1" /><path
         style="opacity:1;fill:#000000;fill-opacity:1;stroke:#000000;stroke-width:2.20019;stroke-linecap:round;stroke-linejoin:round;stroke-dasharray:none"
         d="m 76.752174,4.1106277 c 0,0 1.814221,-0.2495515 1.337008,-1.4642721 -0.47721,-1.2147206 -2.102162,-5.8858046 -5.69305,-8.8429739"
         id="path2" /><path
         style="opacity:1;fill:#000000;fill-opacity:1;stroke:#000000;stroke-width:2.20019;stroke-linecap:round;stroke-linejoin:round;stroke-dasharray:none"
         d="m 114.82209,-46.876178 c 0.35966,4.353471 2.23141,8.292891 -3.31205,8.496259 -5.05054,0.185285 -4.12826,-3.9456 -3.46951,-8.652352"
         id="path3" /><path
         style="opacity:1;fill:#000000;fill-opacity:1;stroke:#000000;stroke-width:2.20019;stroke-linecap:round;stroke-linejoin:round;stroke-dasharray:none"
         d="m 133.73422,-49.269296 c -0.98687,3.776133 -3.5743,8.026297 1.53638,8.825571 5.97951,0.935152 5.16546,-4.131434 5.33979,-7.953294"
         id="path4" /><path
         style="opacity:1;fill:#000000;fill-opacity:1;stroke:#000000;stroke-width:2.20019;stroke-linecap:round;stroke-linejoin:round;stroke-dasharray:none"
         d="m 162.72001,-34.265351 c -1.31511,2.530692 -1.1367,7.676502 -6.60242,5.315794 -4.427,-1.912071 -0.77262,-5.469283 0.60603,-8.264034"
         id="path5" /><path
         style="opacity:1;fill:#000000;fill-opacity:1;stroke:#000000;stroke-width:2.20019;stroke-linecap:round;stroke-linejoin:round;stroke-dasharray:none"
         d="m 169.68585,-15.85557 c -1.03652,1.657355 -4.17571,4.070587 -0.98982,6.1288547 3.68861,2.383062 4.70158,-3.6428557 4.74005,-3.8781057"
         id="path18" /></g></g></svg>
